<?xml version="1.0" standalone="no"?>
<!DOCTYPE svg PUBLIC "-//W3C//DTD SVG 20010904//EN"
 "http://www.w3.org/TR/2001/REC-SVG-20010904/DTD/svg10.dtd">
<svg version="1.0" xmlns="http://www.w3.org/2000/svg"
 width="1160.000000pt" height="1160.000000pt" viewBox="0 0 1160.000000 1160.000000"
 preserveAspectRatio="xMidYMid meet">
<metadata>
Created by potrace 1.14, written by Peter Selinger 2001-2017
</metadata>
<g transform="translate(0.000000,1160.000000) scale(0.100000,-0.100000)"
fill="#000000" stroke="none">
<path d="M8437 11543 c-1 -1 -51 -4 -112 -8 -60 -3 -125 -8 -145 -10 -19 -2
-57 -7 -85 -10 -27 -3 -85 -10 -127 -16 -43 -5 -90 -12 -106 -13 -24 -4 -65
-11 -232 -42 -19 -3 -44 -8 -55 -10 -11 -2 -27 -5 -35 -7 -8 -2 -33 -7 -55
-11 -56 -11 -389 -94 -455 -113 -30 -9 -59 -18 -65 -19 -5 -1 -48 -14 -95 -29
-47 -14 -92 -28 -100 -30 -34 -9 -272 -95 -365 -133 -55 -22 -101 -39 -102
-38 -1 1 -4 53 -7 116 -9 165 -39 256 -96 285 -30 15 -88 12 -127 -8 -37 -20
-113 -99 -163 -170 -32 -47 -222 -419 -243 -477 -2 -8 -45 -35 -93 -60 -49
-25 -90 -48 -92 -52 -2 -5 -10 -8 -17 -8 -13 0 -128 -62 -152 -82 -7 -6 -13
-7 -13 -4 0 4 -17 -5 -37 -19 -21 -14 -43 -25 -49 -25 -7 0 -14 -4 -16 -8 -1
-4 -43 -32 -93 -61 -159 -95 -300 -185 -303 -193 -2 -4 -8 -8 -14 -8 -5 0 -62
-35 -126 -77 -64 -43 -121 -80 -127 -82 -5 -2 -12 -7 -15 -10 -7 -10 -140
-101 -146 -101 -3 0 -11 -6 -18 -12 -8 -7 -22 -19 -32 -25 -11 -7 -61 -43
-112 -80 -52 -38 -101 -72 -110 -78 -9 -5 -21 -16 -25 -22 -4 -7 -14 -13 -22
-13 -7 0 -15 -3 -17 -8 -1 -4 -32 -30 -68 -57 -94 -73 -101 -78 -119 -96 -9
-8 -34 -29 -56 -45 -56 -41 -73 -55 -110 -90 -17 -17 -41 -37 -52 -45 -54 -38
-245 -214 -392 -360 -178 -178 -271 -282 -453 -505 -63 -78 -93 -117 -102
-133 -5 -9 -18 -25 -29 -36 -22 -24 -177 -256 -203 -305 -11 -19 -21 -37 -25
-40 -3 -3 -13 -23 -24 -45 -10 -22 -33 -71 -52 -109 -18 -38 -33 -74 -33 -79
0 -5 -6 -23 -14 -40 -62 -137 -83 -282 -58 -412 7 -33 14 -78 17 -100 2 -22 9
-49 14 -60 5 -11 15 -36 22 -55 7 -19 43 -64 79 -100 122 -120 308 -194 485
-192 50 1 99 3 110 6 37 9 108 36 122 47 7 6 13 9 13 5 0 -6 34 21 79 64 14
14 36 43 48 66 69 126 -44 226 -292 259 -23 3 -50 7 -60 9 -11 2 -42 6 -70 10
-61 9 -149 32 -192 52 -86 39 -98 121 -43 302 11 40 30 93 40 118 11 24 19 45
19 47 -1 4 54 112 60 117 3 3 17 27 31 55 24 47 166 265 179 275 4 3 18 21 31
40 13 19 27 37 30 40 3 3 21 25 40 50 151 195 539 591 760 775 24 20 53 45 65
55 11 11 49 43 85 72 36 29 70 60 77 68 7 8 13 12 13 8 0 -5 8 0 18 10 40 38
255 202 354 269 29 20 55 40 56 45 2 4 8 8 12 8 5 0 63 36 129 80 67 44 126
80 131 80 6 0 10 5 10 10 0 6 5 10 10 10 6 0 16 5 23 10 32 28 364 230 377
230 6 0 10 4 10 9 0 5 8 11 18 14 17 6 72 37 82 47 3 3 21 13 40 24 79 42 147
80 175 96 17 10 40 21 52 24 l21 7 -25 -78 c-14 -43 -26 -85 -28 -93 -2 -8
-20 -71 -40 -140 -19 -69 -37 -132 -39 -140 -2 -8 -11 -42 -20 -75 -9 -33 -19
-69 -21 -80 -3 -11 -7 -29 -9 -40 -3 -11 -19 -74 -36 -140 -18 -66 -33 -127
-35 -135 -2 -8 -8 -35 -15 -60 -11 -42 -14 -53 -25 -105 -3 -11 -7 -30 -10
-42 -3 -13 -7 -33 -10 -44 -2 -12 -9 -36 -14 -53 -5 -17 -14 -58 -21 -91 -7
-33 -15 -67 -18 -75 -3 -8 -7 -24 -9 -36 -3 -16 -24 -109 -59 -259 -2 -11 -7
-33 -10 -50 -3 -16 -14 -68 -25 -115 -11 -47 -22 -96 -25 -110 -3 -14 -8 -33
-10 -42 -6 -26 -12 -57 -24 -113 -14 -66 -19 -91 -26 -117 -3 -13 -7 -32 -9
-43 -2 -11 -6 -31 -9 -45 -6 -29 -55 -255 -62 -285 -2 -11 -6 -31 -9 -45 -6
-26 -13 -61 -20 -95 -2 -11 -12 -60 -24 -110 -11 -49 -22 -103 -25 -120 -14
-72 -18 -93 -27 -135 -6 -25 -13 -55 -15 -67 -8 -43 -15 -77 -28 -138 -16 -72
-57 -263 -60 -280 -4 -23 -19 -108 -21 -115 -8 -34 -33 -152 -46 -220 -16 -77
-17 -85 -19 -85 -1 0 -3 -9 -4 -20 -2 -11 -6 -33 -10 -50 -3 -16 -8 -39 -10
-50 -2 -11 -22 -108 -45 -215 -61 -297 -58 -279 -66 -330 -3 -19 -8 -42 -11
-50 -3 -8 -8 -26 -10 -40 -3 -14 -14 -68 -25 -120 -11 -52 -22 -106 -24 -120
-3 -14 -7 -35 -10 -47 -7 -30 -11 -50 -20 -98 -5 -22 -9 -44 -10 -50 -2 -5
-13 -57 -25 -115 -12 -58 -24 -114 -27 -125 -2 -11 -5 -25 -5 -32 -1 -6 -51
-35 -112 -64 -61 -28 -156 -73 -211 -99 -207 -99 -291 -138 -340 -160 -27 -12
-68 -31 -89 -41 -22 -11 -46 -19 -53 -19 -7 0 -13 -4 -13 -10 0 -5 -8 -10 -18
-10 -10 0 -22 -4 -27 -9 -6 -5 -46 -24 -90 -44 -162 -70 -181 -78 -208 -93
-16 -8 -35 -14 -43 -14 -8 0 -14 -4 -14 -10 0 -5 -5 -10 -11 -10 -6 0 -25 -6
-42 -14 -18 -7 -66 -28 -107 -46 -41 -18 -91 -39 -110 -47 -19 -8 -44 -19 -55
-23 -11 -5 -54 -23 -95 -40 -41 -17 -84 -35 -95 -40 -11 -5 -67 -28 -125 -51
-58 -23 -118 -47 -135 -54 -34 -15 -397 -159 -405 -161 -9 -2 -44 -16 -77 -30
-17 -8 -35 -14 -40 -14 -7 0 -44 -14 -168 -65 -16 -7 -86 -33 -155 -60 -301
-113 -304 -115 -295 -145 2 -8 7 -36 9 -61 11 -94 21 -97 191 -65 17 3 44 8
60 11 17 3 44 10 60 14 17 5 66 17 110 26 44 10 98 22 120 28 22 6 42 11 45
12 3 0 23 5 45 10 22 5 42 9 45 10 40 11 78 19 90 20 13 1 54 9 115 22 11 2
31 6 45 9 14 2 48 9 75 14 61 12 112 20 145 25 27 4 72 12 123 21 17 4 43 8
57 9 14 2 27 4 30 5 3 1 8 2 13 1 4 -1 26 3 50 8 23 6 66 12 95 15 29 3 56 7
60 9 6 4 47 10 152 22 14 2 39 5 55 8 17 3 50 8 75 11 25 3 54 7 65 10 11 2
49 7 85 11 36 3 77 8 91 11 41 6 89 12 164 19 39 4 77 9 85 10 8 2 49 6 90 10
41 4 89 9 105 11 17 2 112 6 213 9 l183 6 -5 -23 c-3 -13 -8 -34 -11 -48 -7
-32 -13 -65 -21 -115 -3 -22 -12 -67 -19 -100 -8 -33 -16 -73 -19 -90 -3 -16
-11 -61 -18 -100 -7 -38 -12 -76 -11 -83 0 -6 -3 -12 -8 -12 -5 0 -6 -7 -3
-15 3 -8 2 -20 -2 -27 -4 -6 -8 -21 -10 -32 -2 -26 -13 -88 -24 -141 -5 -22
-12 -56 -15 -75 -3 -19 -10 -54 -16 -78 -5 -24 -7 -47 -4 -52 3 -5 1 -11 -4
-14 -4 -3 -12 -27 -15 -53 -8 -52 -11 -69 -22 -123 -3 -19 -8 -44 -10 -55 -1
-11 -5 -31 -8 -45 -5 -22 -11 -54 -22 -115 -2 -11 -10 -54 -19 -95 -19 -98
-25 -130 -30 -160 -2 -14 -10 -59 -19 -100 -8 -41 -17 -88 -20 -105 -2 -16 -5
-30 -6 -30 -2 0 -7 -23 -14 -70 -4 -23 -9 -52 -11 -65 -3 -14 -8 -40 -11 -59
-3 -18 -8 -42 -10 -52 -13 -59 -22 -103 -29 -144 -3 -16 -7 -41 -10 -55 -13
-67 -27 -137 -29 -155 -2 -11 -9 -47 -16 -79 -7 -33 -13 -69 -15 -80 -1 -12
-12 -68 -23 -126 -11 -58 -23 -123 -26 -145 -4 -22 -10 -62 -16 -90 -11 -58
-19 -109 -24 -145 -4 -25 -23 -144 -31 -188 -30 -170 -20 -315 24 -366 29 -34
94 -76 118 -76 12 0 23 -4 23 -8 0 -13 80 2 116 21 53 27 103 100 140 202 10
27 9 24 18 75 5 25 10 54 12 65 15 82 26 195 39 434 3 57 8 121 10 141 2 21 7
69 10 107 4 37 8 84 10 103 2 19 4 35 5 35 1 0 3 18 5 40 3 37 13 119 21 175
5 31 11 80 19 145 3 28 8 57 10 65 2 8 7 40 10 70 3 30 8 62 10 70 2 8 7 40
10 70 3 30 8 69 11 85 10 52 14 79 18 120 3 22 7 54 9 70 3 17 8 50 12 75 6
44 9 65 19 125 3 17 7 50 11 75 3 25 8 56 11 70 2 14 6 39 9 55 2 17 6 47 9
67 3 21 8 53 11 70 2 18 7 44 10 58 3 14 6 38 7 53 1 15 5 30 10 33 4 3 6 10
2 15 -3 5 -1 33 5 62 6 28 13 69 16 90 7 51 16 105 21 131 4 19 13 84 20 131
1 11 3 20 4 20 1 0 4 14 6 30 5 33 31 193 39 238 3 15 7 37 9 50 7 39 18 101
23 122 2 11 8 42 14 70 5 27 15 55 22 62 7 7 53 15 107 19 114 8 1290 11 1290
4 0 -3 53 -5 118 -5 64 0 121 -2 127 -4 5 -3 39 -6 75 -7 67 -2 234 -11 350
-20 36 -2 99 -6 140 -9 72 -4 160 -11 265 -21 28 -2 73 -6 102 -9 28 -2 78 -6
110 -10 32 -3 81 -8 108 -10 28 -3 77 -7 110 -10 33 -3 78 -8 100 -12 22 -3
60 -7 85 -9 51 -3 131 -12 172 -19 15 -3 51 -7 80 -10 29 -3 64 -7 78 -9 14
-3 48 -7 75 -11 67 -8 184 -25 215 -30 14 -2 45 -6 70 -9 25 -2 56 -7 70 -10
14 -3 41 -8 60 -11 19 -2 46 -7 60 -10 47 -8 205 -36 235 -41 17 -3 37 -7 45
-10 8 -3 32 -8 54 -11 21 -3 113 -25 205 -49 91 -25 177 -47 191 -50 13 -3 27
-8 30 -12 3 -4 15 -8 28 -10 12 -2 35 -10 50 -18 15 -7 31 -14 35 -14 12 0 68
-25 152 -67 73 -37 115 -74 115 -103 0 -17 53 -95 80 -118 94 -79 194 -106
269 -71 105 50 167 124 193 229 31 127 -2 237 -101 339 -27 28 -53 51 -57 51
-4 0 -15 6 -23 14 -20 17 -93 42 -147 50 -22 4 -51 9 -64 12 -14 3 -37 7 -52
10 -16 2 -43 6 -60 9 -18 3 -49 8 -68 10 -46 6 -109 14 -140 19 -23 4 -105 14
-175 22 -16 1 -52 5 -80 9 -27 3 -75 7 -105 10 -30 3 -64 7 -75 9 -17 3 -84
10 -215 21 -19 1 -62 6 -95 9 -33 3 -87 8 -120 11 -33 2 -87 7 -120 10 -159
14 -207 18 -390 30 -38 2 -104 7 -145 10 -109 9 -196 15 -270 20 -177 12 -239
16 -285 20 -27 3 -93 7 -145 10 -92 6 -125 8 -330 20 -52 3 -138 8 -190 11
-52 3 -145 7 -206 8 -61 2 -116 6 -123 10 -6 4 -11 2 -11 -4 0 -6 -5 -8 -12
-4 -14 9 -156 13 -596 19 -171 2 -317 7 -322 10 -6 3 -10 3 -10 -2 0 -4 -96
-9 -213 -10 -116 -1 -293 -4 -392 -7 -179 -6 -274 -8 -307 -7 -10 1 -15 7 -13
14 7 19 16 70 17 87 0 8 6 62 13 120 8 58 17 128 20 155 4 28 8 61 11 75 2 14
7 44 10 66 2 23 7 53 9 65 3 13 8 38 11 54 4 17 8 37 9 45 11 74 34 130 54
130 9 1 34 12 56 25 22 13 63 35 90 49 28 14 83 43 123 65 39 22 72 37 72 33
0 -4 4 -2 8 3 7 11 31 24 177 100 50 26 124 66 167 89 42 22 105 56 140 75 34
19 143 78 241 132 98 55 182 99 187 99 6 0 10 5 10 10 0 6 4 10 10 10 5 0 42
19 82 43 40 24 80 46 88 50 8 4 33 18 55 32 22 14 47 28 55 32 8 4 38 22 67
40 29 18 55 33 59 33 4 0 21 10 38 23 17 12 51 33 76 46 25 14 47 27 50 30 3
3 25 17 50 30 25 14 47 27 50 30 3 3 15 12 28 19 45 25 66 37 76 44 44 31 120
78 126 78 5 0 15 6 22 13 7 7 49 35 93 62 44 27 118 74 163 105 46 30 91 60
101 65 21 13 284 191 332 224 20 15 58 41 85 60 112 79 394 285 413 302 11 11
25 19 30 19 6 0 16 9 23 20 7 11 18 20 25 20 7 0 13 5 13 10 0 6 6 10 13 10 7
0 19 9 27 20 8 11 20 20 26 20 7 0 14 3 16 8 2 4 23 23 48 42 25 19 47 37 50
40 3 3 52 43 110 90 120 97 109 88 249 208 29 26 62 54 71 62 168 145 425 394
598 579 59 63 119 127 135 143 15 16 27 33 27 38 0 6 3 10 8 10 4 0 31 29 60
65 30 35 63 74 74 87 21 23 241 317 265 354 7 11 30 44 51 74 20 30 51 78 67
105 16 28 34 58 40 67 120 198 282 545 311 665 4 15 11 34 17 41 5 6 7 12 4
12 -3 0 4 28 15 63 20 64 26 85 34 127 2 14 7 31 9 38 27 77 21 355 -11 552
-4 19 -8 53 -9 75 -6 89 -30 186 -62 248 -74 148 -216 318 -348 417 -33 25
-62 47 -65 51 -6 6 -150 89 -155 89 -2 0 -32 13 -67 29 -77 37 -214 84 -288
100 -30 7 -62 15 -70 18 -21 8 -28 10 -80 18 -24 4 -47 8 -50 10 -3 2 -34 6
-70 10 -36 4 -74 9 -84 11 -63 12 -569 27 -579 17z m478 -248 c66 -3 138 -8
160 -11 22 -3 56 -7 75 -9 19 -2 35 -4 35 -5 0 -2 49 -8 93 -12 6 -1 12 -4 12
-7 0 -3 10 -7 23 -7 74 -5 275 -73 354 -121 30 -18 58 -33 60 -33 6 0 80 -57
101 -77 7 -7 17 -13 20 -13 9 0 162 -147 162 -155 0 -3 11 -18 25 -33 44 -48
110 -200 130 -303 3 -13 7 -35 10 -49 14 -69 18 -115 18 -230 1 -139 -4 -191
-34 -330 -11 -52 -22 -105 -25 -117 -2 -12 -9 -34 -14 -48 -5 -14 -7 -25 -4
-25 4 0 1 -7 -6 -15 -6 -8 -13 -24 -14 -37 -4 -36 -84 -231 -149 -362 -72
-147 -163 -302 -271 -461 -78 -115 -91 -133 -128 -177 -10 -12 -18 -24 -18
-27 0 -3 -13 -20 -28 -38 -15 -17 -37 -44 -49 -60 -12 -15 -30 -37 -40 -48
-10 -11 -25 -29 -33 -41 -71 -101 -442 -492 -651 -686 -49 -46 -179 -162 -209
-188 -14 -12 -52 -45 -85 -75 -33 -29 -87 -74 -120 -101 -33 -27 -64 -53 -70
-60 -5 -6 -28 -24 -50 -40 -22 -16 -44 -34 -50 -40 -5 -6 -30 -26 -55 -45 -25
-18 -47 -36 -50 -39 -3 -3 -25 -21 -50 -40 -25 -19 -47 -37 -50 -40 -3 -3 -21
-17 -40 -30 -19 -13 -37 -27 -40 -30 -16 -17 -91 -70 -99 -70 -6 0 -11 -4 -11
-9 0 -4 -24 -24 -52 -44 -60 -42 -268 -192 -283 -205 -6 -5 -24 -17 -40 -28
-17 -10 -39 -27 -49 -36 -11 -10 -25 -18 -32 -18 -7 0 -14 -4 -16 -8 -1 -5
-127 -90 -278 -190 -151 -100 -281 -186 -287 -192 -7 -6 -14 -10 -15 -9 -2 1
-36 -19 -76 -44 -40 -26 -75 -47 -78 -47 -3 0 -20 -11 -38 -25 -18 -14 -36
-25 -39 -25 -6 0 -68 -39 -92 -57 -5 -5 -21 -14 -35 -21 -14 -7 -38 -21 -55
-31 -89 -56 -358 -211 -366 -211 -5 0 -9 -4 -9 -8 0 -4 -12 -13 -27 -19 -16
-7 -41 -20 -58 -30 -56 -34 -209 -120 -300 -168 -49 -26 -94 -51 -100 -55 -5
-4 -55 -31 -110 -60 -55 -29 -122 -65 -150 -80 -60 -33 -176 -95 -300 -162
-49 -27 -110 -58 -135 -70 -25 -12 -48 -26 -51 -31 -3 -5 -9 -9 -12 -8 -4 0
-22 -6 -41 -14 -44 -19 -47 -19 -40 0 4 9 0 15 -9 15 -12 0 -13 8 -7 42 5 24
10 59 13 78 3 19 12 78 21 130 25 138 27 152 31 180 2 14 7 43 11 65 4 22 8
47 9 55 1 8 5 31 9 50 13 75 17 96 22 130 2 19 7 46 9 60 9 50 81 457 90 510
3 19 8 46 12 60 3 14 7 36 9 50 6 51 13 90 18 107 3 10 7 34 10 53 3 19 14 80
24 135 11 55 20 107 20 115 0 8 6 33 11 55 6 22 13 60 16 85 3 25 9 54 12 65
8 23 11 37 17 80 3 17 7 39 9 50 6 25 37 191 43 225 2 14 7 36 11 50 3 14 7
32 8 40 1 8 5 29 9 45 6 29 11 54 21 105 3 14 7 36 10 50 13 58 26 127 30 150
2 14 8 45 14 70 11 46 76 354 85 400 2 14 10 48 16 75 6 28 13 57 15 65 2 8
11 47 20 85 9 39 19 81 21 95 5 22 17 79 30 135 3 11 7 31 10 44 3 13 12 51
20 85 8 34 17 72 20 86 2 14 7 32 10 40 3 8 8 25 10 37 2 12 20 84 40 160 19
76 38 152 41 168 3 17 9 38 15 48 5 10 7 21 4 24 -3 3 1 18 9 33 8 15 12 30 9
33 -3 3 -2 12 2 19 5 7 9 20 11 28 3 23 84 303 93 325 9 21 18 50 25 82 6 30
91 266 113 316 12 26 19 47 17 47 -7 0 45 92 62 112 16 18 166 98 184 98 9 0
7 -43 -6 -100 -3 -14 -7 -34 -9 -45 -2 -11 -12 -54 -21 -95 -9 -41 -18 -85
-21 -98 -4 -19 -44 -182 -60 -244 -14 -58 -22 -91 -28 -125 -3 -13 -8 -28 -11
-33 -4 -6 -9 -26 -11 -43 -3 -18 -9 -43 -14 -57 -8 -23 -16 -58 -21 -85 -1 -5
-5 -20 -10 -33 -5 -12 -11 -33 -14 -45 -18 -80 -30 -117 -37 -117 -5 0 -7 -4
-4 -8 3 -5 -2 -31 -10 -58 -9 -27 -17 -53 -18 -59 -3 -9 -6 -19 -24 -65 -3 -8
-5 -18 -4 -22 1 -4 -5 -26 -14 -50 -9 -24 -17 -50 -19 -58 -2 -8 -4 -16 -4
-17 -1 -2 -1 -5 -1 -8 -1 -3 -8 -24 -16 -47 -9 -24 -17 -51 -19 -60 -2 -9 -9
-27 -16 -40 -7 -13 -11 -24 -10 -26 2 -3 -60 -203 -68 -217 -3 -5 -6 -16 -7
-23 -2 -8 -6 -21 -10 -30 -4 -9 -8 -21 -9 -27 -4 -16 -61 -181 -109 -315 -24
-69 -52 -145 -60 -170 -9 -25 -19 -52 -23 -60 -3 -8 -7 -20 -8 -26 -3 -10 -66
-175 -85 -219 -4 -11 -26 -58 -48 -105 -22 -47 -45 -101 -50 -120 -20 -80 6
-185 54 -217 48 -31 123 -24 181 18 21 15 80 129 67 129 -4 0 -2 6 3 13 11 13
48 124 117 347 24 80 48 156 52 170 4 14 9 27 9 30 6 26 27 98 32 110 3 8 7
21 9 28 1 7 16 59 33 115 49 163 132 451 136 467 1 8 9 35 16 60 15 53 18 66
22 83 1 6 5 17 9 22 3 6 9 28 13 50 4 22 11 47 15 55 5 8 10 29 13 45 6 29 64
244 75 275 3 8 6 22 8 30 2 9 15 58 29 110 14 52 44 165 67 250 22 85 44 160
49 166 5 6 6 13 3 16 -3 3 0 26 6 49 7 24 12 45 12 46 0 2 6 26 14 55 8 29 17
64 20 78 13 68 84 364 91 380 3 8 7 21 9 27 14 68 50 93 229 163 44 18 89 36
100 40 129 54 523 183 536 175 5 -4 9 -2 9 2 0 8 73 33 110 38 8 1 42 10 75
19 33 10 67 20 75 21 8 2 56 14 105 26 50 12 99 23 110 25 11 1 20 3 20 4 0 4
331 65 410 76 28 3 59 8 70 11 11 2 45 6 75 9 30 3 64 6 75 8 11 1 26 5 33 9
7 5 12 3 12 -3 0 -6 4 -9 9 -6 13 8 79 14 241 22 80 3 146 7 147 8 2 2 104 -2
238 -9z m-2842 -185 c-10 -101 -22 -131 -65 -163 -45 -34 -78 -43 -78 -22 0
18 13 44 83 169 40 71 52 86 57 71 4 -11 5 -35 3 -55z m-1823 -6502 c-5 -24
-11 -63 -14 -88 -3 -25 -8 -56 -11 -70 -3 -14 -8 -48 -10 -76 -6 -57 -6 -57
-36 -209 -23 -114 -41 -169 -60 -181 -6 -3 -41 -8 -78 -10 -68 -4 -222 -13
-326 -19 -114 -8 -327 -24 -380 -30 -22 -3 -65 -7 -95 -10 -51 -4 -73 -7 -182
-20 -24 -3 -63 -7 -88 -10 -25 -2 -45 -4 -45 -5 0 0 -22 -3 -50 -5 -27 -3 -70
-7 -95 -10 -69 -8 -119 -13 -190 -20 -35 -4 -68 -9 -72 -11 -4 -3 -8 -1 -8 4
0 5 8 12 18 15 9 3 116 51 237 107 225 104 320 147 333 151 9 3 142 67 164 79
10 6 25 10 33 10 8 0 15 5 15 10 0 6 6 10 13 10 6 0 43 16 82 34 38 19 73 32
77 30 5 -3 8 -1 8 4 0 4 42 28 93 52 158 74 268 126 372 175 89 42 140 65 155
70 3 1 34 16 70 33 36 17 68 31 71 31 4 1 3 -18 -1 -41z"/>
</g>
</svg>
