<svg width="578" height="986" viewBox="0 0 578 986" fill="none" xmlns="http://www.w3.org/2000/svg">
<mask id="mask0_0_3148" style="mask-type:luminance" maskUnits="userSpaceOnUse" x="0" y="0" width="327" height="646">
<path fill-rule="evenodd" clip-rule="evenodd" d="M0 0H327V646H0V0Z" fill="white"/>
</mask>
<g mask="url(#mask0_0_3148)">
<path fill-rule="evenodd" clip-rule="evenodd" d="M303.835 374.203C303.671 374.368 303.343 374.57 303.37 374.692C303.448 375.042 303.671 375.358 303.835 375.688C304 375.524 304.328 375.322 304.301 375.2C304.223 374.851 304.001 374.534 303.835 374.203V374.203ZM308.511 351.707C308.71 351.508 308.874 351.343 309.04 351.178C308.71 351.012 308.392 350.791 308.042 350.713C307.919 350.686 307.718 351.012 307.552 351.178C307.876 351.356 308.199 351.534 308.511 351.707V351.707ZM163.522 202.165C163.535 202.479 163.549 202.793 163.562 203.106C164.224 203.194 164.884 203.318 165.548 203.343C165.711 203.349 166.056 202.982 166.024 202.871C165.923 202.52 165.699 201.944 165.494 201.932C164.843 201.894 164.18 202.072 163.522 202.165V202.165ZM278.561 243.478C279.616 242.474 279.652 241.484 278.427 240.422C277.838 240.541 277.177 240.675 276.21 240.871C276.425 241.904 276.597 242.726 276.754 243.478H278.561ZM178.296 422.164C179.642 421.682 180.323 421.508 180.931 421.195C181.349 420.981 181.618 420.451 182.041 420.284C182.668 420.037 183.373 419.987 183.934 419.875C184.135 418.96 184.285 418.286 184.421 417.67C185.393 417.332 186.254 417.032 187.109 416.735C187.109 415.598 186.699 414.126 187.184 413.72C188.754 412.403 188.455 410.09 190.016 408.971V404.907C189.322 403.834 188.823 403.062 188.005 401.795C189.404 400.881 190.64 400.075 191.507 399.508V376.743C192.079 375.595 193.61 375.059 192.988 373.344C192.39 372.798 191.662 372.135 190.586 371.155C189.835 372.226 189.017 373.392 188.446 374.205H186.18C185.902 375.017 185.606 375.88 185.048 377.511C183.589 378.846 181.592 380.672 179.603 382.493V385.329C179.037 386.004 178.576 386.551 178.296 386.886V422.164ZM176.699 430.775V458.107C177.211 458.653 177.71 459.186 178.155 459.661V472.971C177.619 473.573 177.138 474.112 176.755 474.541C175.784 477.395 179.352 479.345 178.058 481.904C177.473 482.647 177.036 483.202 176.854 483.433V487.999C177.358 488.502 177.707 488.852 178.187 489.33C178.187 494.124 178.182 499.047 178.203 503.971C178.204 504.167 178.435 504.362 178.559 504.558C178.909 504.907 179.259 505.257 179.674 505.672C179.674 511.032 179.67 516.458 179.691 521.884C179.692 522.073 179.963 522.259 180.107 522.446C180.457 522.796 180.808 523.145 181.159 523.494C181.159 527.941 181.159 532.387 181.162 536.833C181.659 537.367 182.157 537.901 182.67 538.451V550.217C183.198 550.801 183.684 551.338 184.194 551.901V559.211C184.954 559.969 185.653 560.668 186.377 561.391C187.06 560.683 187.743 559.977 188.461 559.232C188.6 557.627 188.919 555.95 188.253 554.351C187.872 553.972 187.523 553.622 187.151 553.251C187.63 552.729 188.109 552.208 188.59 551.683V544.466C187.947 543.608 187.394 542.869 186.835 542.122C187.472 541.127 187.943 540.392 188.383 539.705C187.923 539.14 187.474 538.591 187.239 538.302V532.281C187.718 531.802 188.069 531.452 188.435 531.086V515.081C187.663 513.548 187.253 512.732 186.935 512.101C187.651 510.773 189.144 510.222 188.591 508.686C188.099 508.155 187.603 507.619 187.098 507.074V486.536C186.451 485.662 185.902 484.92 185.363 484.19C185.992 483.186 186.455 482.449 186.813 481.878C186.296 481.016 185.823 480.231 185.424 479.569C186.147 478.517 186.67 477.755 186.93 477.377V472.812C186.402 472.284 186.053 471.935 185.67 471.553C186.143 471.036 186.619 470.516 187.108 469.982V467.075C186.595 466.526 186.097 465.993 185.581 465.442V461.123C185.038 460.507 184.563 459.966 184.217 459.572V456.664C184.79 455.97 185.244 455.422 185.508 455.103V440.195C185.045 439.732 184.694 439.383 184.086 438.775V434.059C183.81 434.247 183.534 434.435 183.258 434.622C182.31 433.176 181.363 431.731 180.616 430.591C179.089 430.663 178.134 430.707 176.699 430.775V430.775ZM114.178 420.245C114.265 421.189 114.35 422.117 114.423 422.921C116.754 420.591 118.962 418.386 121.659 415.693C121.635 416.133 121.661 415.649 121.686 415.154C122.672 414.087 124.155 413.169 124.554 411.907C125.399 409.244 127.232 407.071 127.897 404.43C130.109 401.857 133.084 400.009 134.295 396.617C134.546 395.917 135.287 394.899 136.535 394.97C136.949 394.994 137.749 394.663 137.751 394.488C137.771 392.516 139.639 391.758 140.355 390.338C141.226 388.611 142.457 387.223 143.473 385.667C144.358 384.31 144.888 382.746 146.198 381.611C147.505 380.479 148.668 379.181 149.915 377.936V373.533C151.631 372.13 151.396 369.388 153.573 368.339C154.249 365.909 156.143 364.392 157.753 362.63C159.197 361.05 160.946 359.817 161.939 357.698C162.833 355.794 164.653 354.324 166.239 352.457V349.536C167.455 348.699 168.778 347.789 170.564 346.56V341.053C171.33 340.186 171.807 339.645 172.239 339.156V335.104C172.547 334.7 172.971 334.14 173.559 333.367C173.658 332.462 173.784 331.292 173.903 330.204C174.854 329.253 175.73 328.378 176.553 327.556C175.994 326.567 175.444 325.596 174.691 324.264C176.519 323.916 177.877 323.658 179.253 323.397C180.256 322.088 179.504 321.201 178.543 320.325C177.839 319.682 177.192 318.977 176.642 318.421C176.787 317.663 176.875 317.205 177.002 316.543C177.603 316.42 178.281 316.281 179.097 316.113C180.421 314.757 179.389 312.941 179.758 310.847C180.606 310.179 181.762 309.269 182.652 308.569V305.153C183.166 304.599 183.664 304.063 184.383 303.288C183.486 301.524 182.55 299.685 181.348 297.322C182.295 296.909 183.638 296.323 184.099 296.121V284.44C185.13 283.36 186.138 282.3 187.162 281.227V276.848C187.566 276.444 187.917 276.095 188.318 275.694C188.177 275.376 188.1 274.963 187.86 274.707C186.893 273.679 185.875 272.7 184.878 271.703C184.544 272.036 184.222 272.207 184.217 272.387C184.175 273.863 184.194 275.341 184.194 276.783C182.958 277.526 181.694 278.125 180.628 278.972C179.473 279.891 178.503 281.043 177.176 282.368C176.269 281.212 175.363 280.056 174.669 279.172C172.248 278.902 171.171 281.903 169.139 280.748C166.309 283.575 163.531 286.35 160.73 289.149C160.844 289.276 161.31 289.801 161.776 290.327C160.898 291.203 160.022 292.078 159.001 293.097V297.872C158.038 298.514 156.81 299.331 155.938 299.911V304.68C154.866 306.524 153.934 308.128 152.874 309.952V314.073C151.381 315.645 149.5 314.124 148.063 314.987C147.34 314.344 146.799 313.863 146.197 313.328H142.988C142.21 314.483 141.31 315.818 140.088 317.632C139.026 317.69 137.359 317.779 135.692 317.869C135.342 318.22 134.992 318.569 134.379 319.181H126.944C126.331 319.793 125.981 320.144 125.62 320.505C124.157 320.371 124.857 319.148 124.549 318.373C123.094 317.039 121.288 318.029 119.551 317.734C119.077 317.309 118.538 316.826 117.944 316.294H112.118C111.554 315.774 111.016 315.278 110.459 314.765H106.092C105.513 314.239 104.974 313.751 104.405 313.235H100.059C98.5947 311.772 97.1933 310.372 95.7642 308.945C95.481 309.24 95.1505 309.505 94.9364 309.845C94.8241 310.022 94.9909 310.359 94.9003 310.568C94.7201 310.99 94.4493 311.372 94.2043 311.791H91.2369C90.199 310.804 89.1384 309.798 88.1315 308.841H85.7828C84.7975 309.387 83.7967 309.943 82.7536 310.522C82.071 309.979 81.517 309.537 80.7726 308.945H72.4191C70.5719 307.899 68.9616 306.986 67.3193 306.055C66.7396 306.495 66.0116 307.048 65.4103 307.506C64.6793 307.163 64.182 307.055 63.8648 306.756C62.6025 305.568 61.3968 304.322 60.0716 302.997H57.409C55.7636 301.737 53.9473 300.795 54.5939 298.53C52.6561 298.288 51.2548 298.738 49.9502 297.484C49.0225 296.591 47.4966 296.343 46.3094 295.552C45.4301 294.966 43.8887 295.949 42.924 294.795C43.8877 293.602 44.1183 293.098 44.3531 291.564C43.517 291.274 42.6542 290.976 41.7914 290.676C41.3249 288.094 39.2955 286.691 37.7366 285.242C36.8563 285.006 36.1911 284.827 35.5105 284.644C36.4969 282.901 37.3917 281.321 38.3904 279.556V276.924C37.8622 276.339 37.3752 275.8 36.6843 275.036C37.0756 274.276 37.4957 273.463 38.3709 271.764V268.019C39.6713 266.727 40.979 267.509 42.1013 267.254C42.6346 267.738 43.1536 268.208 43.8342 268.827C44.0761 268.031 44.2759 267.373 44.4705 266.733C43.9052 266.111 43.4161 265.573 42.8714 264.975C44.0978 263.815 45.3457 262.635 46.6245 261.426C47.0611 261.821 47.581 262.294 48.101 262.765C48.4439 262.423 48.794 262.073 49.1451 261.725C51.6862 261.33 54.075 260.527 56.2434 259.091V257.627C58.0741 256.805 58.0741 256.805 59.8461 258.201C60.1334 257.926 60.6657 257.656 60.6771 257.367C60.7522 255.412 60.7162 253.451 60.7162 252.055C62.1896 250.382 63.3263 249.09 64.3941 247.876H71.9269C72.8608 246.944 73.736 246.068 74.7348 245.071C75.2187 245.464 75.716 245.867 76.3235 246.361C77.3048 245.427 78.3303 244.452 79.3743 243.458H82.2965C83.1923 242.563 84.0685 241.688 85.2062 240.552H90.1012C90.2824 239.655 90.4203 238.977 90.5892 238.144C91.7187 237.006 94.1641 237.338 94.7387 235.122C93.8357 234.297 92.8483 233.493 93.8336 231.846C94.3412 231.761 95.0167 231.649 95.8301 231.516C96.1585 232.456 96.4602 233.317 96.7619 234.179C101.504 231.889 101.504 231.889 103.011 228.671C103.542 229.143 104.058 229.602 104.614 230.095H109.358C109.641 228.661 109.939 227.148 110.283 225.405C110.942 226.064 111.292 226.413 111.83 226.95H115.177C115.492 226.636 115.842 226.286 116.335 225.794H120.894C121.159 226.007 121.712 226.452 122.276 226.906C123.175 226.404 124.126 225.872 125.734 224.975C126.038 224.363 126.709 223.015 127.372 221.68C126.988 221.297 126.638 220.946 126.215 220.524V217.473C128.136 216.87 129.765 215.564 131.147 213.938H134.512C136.256 215.91 133.94 216.559 133.684 217.423V220.865C134.424 221.018 135.101 221.158 135.625 221.266C137.49 219.393 139.233 217.643 140.989 215.879V213.216C140.331 212.298 139.794 211.548 139.308 210.869C140.339 208.759 142.006 207.682 143.38 206.34C145.57 206.674 145.979 204.349 148.427 203.493H152.324C153.013 202.518 153.865 201.317 154.49 200.433H158.067C158.553 200.881 159.086 201.372 159.62 201.864C160.845 200.639 162.071 199.414 163.308 198.179V196.724C164.219 195.467 165.584 196.219 166.686 195.898C167.439 195.679 168.072 195.051 169.023 194.434C169.111 195.491 169.166 196.163 169.236 197.014C168.484 197.202 167.814 197.369 167.049 197.561C166.16 199.318 166.16 199.318 168.214 201.586C170.22 200.772 172.394 200.182 173.639 198.083C172.767 197.212 171.891 196.337 170.767 195.214C172.466 193.73 173.593 191.798 176.155 191.158C177.812 190.745 177.978 188.55 178.797 187.151C179.286 187.109 179.764 187.068 180.403 187.014C181.999 185.306 183.679 183.508 185.576 181.476C185.579 181.415 185.602 180.929 185.627 180.407C186.105 179.896 186.604 179.361 187.117 178.812V175.871C190.542 174.821 192.521 172.317 193.895 169.206C194.383 169.183 194.869 169.161 195.533 169.13C195.727 168.531 195.938 167.877 196.242 166.939C195.105 166.044 193.948 165.135 193.072 164.445V162.201C194.398 161.962 195.76 161.718 197.318 161.438C197.781 158.819 197.294 156.126 197.635 153.486C199.037 152.086 200.297 150.491 201.881 149.342C203.381 148.253 205.38 147.861 206.435 146.119C206.992 144.583 205.467 144.043 204.952 143.021C204.952 141.783 204.952 140.545 204.952 139.034C204.666 138.648 204.25 138.085 203.594 137.199C202.792 135.524 203.932 133.961 205.061 132.199C204.555 131.282 204.003 130.28 203.278 128.964C203.738 128.329 204.279 127.582 204.933 126.679V123.926C204.456 123.41 203.96 122.872 203.492 122.365V120.897C203.867 120.521 204.217 120.17 204.773 119.616C205.272 117.205 204.679 114.504 205.078 111.958C205.588 111.351 206.048 110.804 206.445 110.332C206.424 108.29 203.835 107.098 205.11 104.565C205.358 104.276 205.825 103.73 206.381 103.08V100.163C205.98 99.7245 205.488 99.1876 204.966 98.6158V95.6929C205.45 95.1715 205.947 94.6356 206.41 94.1368V77.6319C205.566 77.3368 204.705 77.0354 203.788 76.7145C203.835 75.4074 205.096 74.996 205.628 74.2596C206.422 74.0858 207.095 73.9377 207.693 73.8071C208.001 71.8941 208.374 70.1807 206.478 68.9938C207.446 67.9571 208.406 66.9328 209.364 65.9084C208.465 65.0116 207.59 64.1364 206.576 63.1244V54.4585C206.076 53.8424 205.628 53.2912 205.045 52.5733V48.6003C204.08 46.4765 202.126 46.0466 200.496 45.1683C200.494 43.6842 200.494 42.2001 200.494 40.7407C200.981 40.209 201.456 39.6886 201.81 39.3009C200.93 37.8199 200.026 36.4592 199.303 35.0091C199.004 34.4085 199.212 33.5723 198.982 32.9162C198.294 30.9621 197.291 29.1221 197.121 26.9891C197.092 26.6137 196.466 26.2846 196.073 25.8917V21.4868C197.728 20.3894 197.305 17.9293 199.05 16.7826V7.9511C200.591 6.58426 202.392 7.55102 204.029 7.27848C205.048 7.80402 205.593 9.31896 207.252 8.71833C207.692 7.78654 208.171 6.76938 208.643 5.76868H210.182C210.909 5.04258 211.61 4.34323 212.31 3.64284C212.371 2.47141 212.431 1.29999 212.498 0H220.67C222.279 1.06344 222.567 2.80978 223.458 4.25066H226.472C226.957 5.25856 227.442 6.26646 227.923 7.26613H230.099C230.762 7.96652 231.736 8.99396 232.608 9.91444C233.306 9.47426 234.083 8.98471 235.331 8.19896C236.14 9.70052 236.854 11.0272 237.208 11.6844H243.175C244.312 12.9279 245.408 14.7935 247.039 15.7088C248.491 16.5244 250.009 17.0983 251.066 18.5042V21.4179C252.016 22.6767 253.361 21.9218 254.724 22.1872C255.289 22.7148 255.995 23.375 256.948 24.2636V28.9082C258.416 29.7186 260.044 29.7042 260.794 31.1369C261.559 32.5984 263.897 32.0728 264.244 33.2761C264.601 34.5134 265.08 35.4503 265.918 36.3142C265.007 38.1377 267.857 38.5079 267.408 40.1545C267.102 41.7445 264.401 42.5581 265.496 45.1591C266.729 45.9685 267.963 46.7779 268.832 47.3487V50.9174C270.042 51.659 271.159 52.454 272.371 53.0598C273.713 53.7324 273.265 55.1733 273.861 56.1873C274.949 58.0386 275.917 59.9196 277.714 61.3574V65.5382C278.354 66.4309 278.893 67.1837 279.305 67.7586C279.275 70.0778 276.969 70.4162 276.336 72.5215C276.41 72.7066 276.489 73.5664 276.957 73.9377C278.171 74.9014 277.739 76.5932 278.931 77.67C279.569 78.2459 279.249 79.8791 279.336 80.778C278.701 81.4126 278.351 81.7623 277.907 82.2055V86.4233C276.286 87.5011 274.76 88.5152 273.216 89.5437C273.867 90.243 274.363 90.7758 274.929 91.3826C274.81 94.6006 270.876 95.2434 270.263 98.37C269.713 101.173 265.601 100.619 264.434 103.249C264.801 105.773 263.201 107.656 262.228 109.743C261.607 111.073 261.574 111.058 261.729 113.767C262.08 114.117 262.43 114.468 262.944 114.98C261.772 116.15 260.784 117.875 259.378 118.342C257.889 118.836 256.869 119.611 255.49 120.927C255.547 121.773 255.385 123.023 255.782 124.059C256.095 124.877 257.199 125.367 257 126.525C256.771 127.853 257.209 128.918 258.359 129.663C256.852 130.666 255.368 131.653 254.036 132.54V141.725C255.021 143.246 256.506 143.945 258.323 144.405V147.844C257.266 149.041 255.906 147.955 253.348 149.402C253.493 149.302 254.279 150.664 253.696 152.589C253.155 152.982 251.964 153.847 251.073 154.493V156.715C251.835 156.98 252.686 157.277 253.536 157.573C253.699 158.001 253.998 158.427 254.001 158.857C254.036 163.06 254.022 167.263 254.022 171.43C254.408 171.816 254.759 172.166 255.352 172.758C255.43 173.668 255.532 174.84 255.645 176.15C256.451 176.442 257.311 176.753 258.434 177.159V186.242C259.729 187.552 261.041 186.761 262.388 187.076C262.651 187.836 262.777 188.82 263.287 189.528C264 190.521 264.998 191.309 265.896 192.206V198.407C267.117 199.219 268.461 200.113 270.103 201.205C270.111 202.879 271.636 204.736 271.708 206.663C271.799 209.08 274.332 210.033 273.638 212.242C274.713 212.313 275.196 212.345 275.678 212.377C276.379 213.077 277.08 213.777 277.797 214.493V219.13C278.606 219.403 279.462 219.692 280.529 220.052C280.623 220.632 280.502 221.512 280.886 221.957C282.176 223.452 284.268 224.566 284.886 226.253C285.612 228.236 286.968 229.407 288.212 230.842V233.797C287.72 234.323 287.222 234.858 286.701 235.417V238.312C285.266 239.746 283.864 241.146 282.658 242.352C281.895 244.044 281.238 245.502 280.737 246.613C281.723 247.793 282.486 248.706 283.415 249.819C284.39 249.194 285.164 248.698 286.048 248.131C287.107 248.406 286.549 249.582 286.907 250.33C288.773 251.207 290.637 252.084 292.683 253.046C292.683 253.923 292.279 255.266 292.761 255.782C294.091 257.207 293.83 259.521 295.657 260.565C295.656 261.554 295.656 262.545 295.656 263.689C293.364 264.772 292.893 267.356 291.323 269.715V278.119C290.666 278.839 290.021 279.547 289.436 280.188C287.97 280.96 286.481 280.471 285.05 280.616C284.821 280.662 284.516 280.631 284.376 280.768C282.955 282.149 281.561 283.557 280.647 284.47C279.04 285.287 278.016 285.806 276.562 286.545H272.586C271.93 287.237 271.251 287.954 270.522 288.723C270.406 289.802 270.279 290.972 270.126 292.39H263.579C262.073 294.815 263.797 297.456 262.328 299.905H257.6C257.33 300.592 257.162 301.018 256.886 301.718C257.356 302.331 257.92 303.063 258.484 303.797C258.447 304.279 258.41 304.758 258.372 305.243C257.394 306.402 256.063 305.627 254.904 305.874C253.301 307.352 251.814 309.019 250.032 310.266C248.758 311.157 247.087 311.484 245.581 312.068C244.553 313.069 245.874 315.356 243.701 315.286C243.376 316.844 244.146 318.178 242.966 319.147C242.239 318.615 241.517 318.085 241.066 317.754C240.399 317.754 240.021 317.649 239.923 317.77C238.713 319.262 236.807 320.165 235.967 322.389C236.497 323.071 237.063 323.801 237.643 324.548V331.868C236.39 333.129 235.169 334.358 233.952 335.582C233.444 335.582 232.95 335.582 232.454 335.584C231.754 336.286 231.053 336.986 230.298 337.74C230.751 338.252 231.206 338.766 231.667 339.286C231.359 339.614 231.029 339.964 230.7 340.312C230.542 340.494 230.251 340.677 230.25 340.86C230.225 345.803 230.23 350.747 230.23 355.634C229.825 356.04 229.33 356.328 229.149 356.75C228.427 358.433 229.033 360.507 227.332 361.993C226.841 362.423 227.257 363.888 227.257 364.878V376.432C226.674 377.013 226.324 377.364 225.711 377.976V385.402C225.099 386.014 224.749 386.365 224.341 386.772V392.609C223.823 393.173 223.332 393.71 222.809 394.282V401.251C221.861 402.983 221.084 404.406 220.307 405.829C220.27 405.808 220.233 405.789 220.195 405.768C220.071 405.965 219.861 406.151 219.839 406.358C219.786 406.847 219.822 407.346 219.822 407.842V421.307C220.591 421.506 221.258 421.679 221.875 421.838C222.502 421.255 223.036 420.756 223.564 420.264H226.524C226.884 420.624 227.234 420.975 227.608 421.348C228.692 422.102 229.908 421.635 231.014 421.633C231.562 421.18 232.065 420.762 232.502 420.4C233.177 420.942 233.731 421.386 234.172 421.74C235.387 421.74 235.387 421.74 238.381 418.798H242.742C245.057 416.513 247.335 414.265 249.603 412.028V408.863C250.251 408.661 250.908 408.458 251.885 408.153C253.231 406.901 254.605 404.737 256.502 404.085C258.841 403.28 259.901 401.431 261.528 400.074C263.173 398.706 264.288 396.93 265.349 395.008C266.384 393.134 268.386 391.793 269.953 390.227C270.681 388.535 271.403 386.854 272.245 384.896C274.282 383.702 275.401 381.148 278.103 379.994C280.215 379.092 281.903 376.964 283.495 375.133C285.191 373.183 286.552 370.942 288.245 368.568V366.011C290.194 364.064 292.121 362.137 294.049 360.212C293.922 358.192 295.245 356.879 296.817 356.487C298.46 356.078 299.874 355.048 299.979 353.928C300.229 351.251 303.752 350.68 303.418 347.881C306.729 345.002 307.533 340.657 309.742 337.094H311.39C312.215 335.284 313.063 333.421 313.966 331.439C314.031 331.393 314.207 331.18 314.417 331.139C314.887 331.049 315.373 331.044 315.851 331.004C317.98 329.08 315.168 328.141 314.501 326.683C317.581 323.935 318.454 319.867 321.974 317.688H324.635C325.258 317.179 325.759 316.771 326.255 316.365C327.519 317.51 326.429 318.861 327 319.865C326.355 320.511 325.811 321.02 325.308 321.565C324.668 322.255 323.855 322.767 323.844 323.954C323.839 324.551 323.152 325.141 322.549 326.084V333.512C321.574 334.196 320.368 335.042 319.486 335.663V339.184C318.967 339.738 318.468 340.273 317.954 340.822V343.758C317.597 344.114 317.247 344.465 316.894 344.815C316.094 346.178 316.635 347.671 316.474 349.1C315.105 351.758 313.735 354.416 312.09 357.609V361.71C311.087 362.498 309.93 363.408 309.028 364.118V374.958C308.665 375.32 308.315 375.67 307.7 376.285C307.297 378.638 307.768 381.332 307.44 383.972C306.564 384.847 305.688 385.722 304.695 386.714V391.471C304.833 392.104 306.725 392.468 305.635 394.616C305.623 394.63 305.139 395.169 304.607 395.764V400.096C304.085 400.66 303.588 401.198 303.076 401.752V406.159C302.708 406.526 302.358 406.876 301.744 407.488V413.43L300.275 414.899V425.635C299.318 426.249 298.076 427.046 297.77 427.244C296.583 429.792 297.753 430.499 298.589 431.352C298.268 431.703 297.948 432.053 297.617 432.414C297.463 432.828 297.17 433.256 297.165 433.687C297.128 437.394 297.144 441.1 297.144 444.72C297.694 445.327 298.181 445.866 298.715 446.456C298.43 448.476 296.197 450.086 297.433 452.481C297.715 452.764 298.066 453.114 298.679 453.726V459.668C299.292 460.28 299.642 460.631 300.048 461.037C299.598 461.547 299.144 462.061 298.649 462.623V472.951C299.005 473.203 299.351 473.538 299.764 473.713C300.185 473.892 300.673 473.911 301.376 474.048C301.897 476.614 301.427 479.307 301.651 481.949C302.006 482.304 302.357 482.653 302.91 483.207C303.002 484.156 303.117 485.325 303.232 486.5C303.582 486.85 303.932 487.199 304.431 487.698V493.373C304.928 493.995 305.371 494.549 305.963 495.29V498.196C305.661 498.548 305.195 499.093 304.638 499.746V502.663C305.038 503.1 305.528 503.637 306.051 504.21V507.137C304.886 509.085 302.62 509.546 300.73 510.667C300.383 510.35 299.86 509.872 299.316 509.375H291.929C291.568 509.014 291.217 508.664 290.819 508.265C285.577 507.761 281.749 504.024 275.577 501.987H274.536C272.167 500.3 269.948 498.917 267.967 497.254C266.146 495.726 263.403 495.488 262.401 493.067H258.176C255.799 491.376 253.579 489.995 251.598 488.327C249.757 486.779 247.509 486.213 245.462 485.289C245.266 484.544 245.235 483.782 244.881 483.225C244.358 482.407 243.605 481.734 243.068 481.132H241.233C240.389 479.267 239.538 477.39 238.603 475.323C237.755 475.279 236.804 475.23 235.455 475.159C233.744 473.194 231.82 470.981 230.38 469.326C228.903 469.258 228.417 469.235 227.753 469.203C227.559 468.604 227.348 467.95 226.992 466.847C225.536 465.508 223.727 463.843 221.653 461.935C220.479 461.916 218.779 461.459 217.006 462.328V471.465C217.184 471.691 217.62 472.246 218.369 473.198V481.938C218.982 482.55 219.332 482.899 219.752 483.32V503.987C220.266 504.56 220.749 505.099 221.282 505.692V516.024C220.814 516.531 220.318 517.068 219.827 517.6C219.269 519.14 220.778 519.686 221.37 520.818V527.935C221.878 528.552 222.291 529.053 222.693 529.542C222.232 530.003 221.882 530.353 221.459 530.776V551.872C221.958 552.372 222.309 552.722 222.722 553.134C222.277 553.643 221.829 554.156 221.332 554.724V582.874C221.804 583.385 222.3 583.922 223.004 584.685C222.682 585.41 222.31 586.246 221.94 587.082C220.958 588.351 221.397 589.837 221.325 591.27C221.251 592.751 221.309 594.239 221.309 595.736C220.233 597.234 219.79 599.061 218.652 600.598C217.892 601.626 217.832 603.394 219.171 604.54C220.329 605.532 219.594 606.842 219.856 608.023C219.371 608.559 218.884 609.096 218.356 609.68V614.033C217.839 614.593 217.343 615.13 216.824 615.692V621.566C216.451 621.939 216.1 622.29 215.748 622.639C215.619 623.081 215.39 623.52 215.379 623.964C215.335 625.678 215.361 627.394 215.361 628.989C216.387 629.937 217.407 630.72 216.594 632.207C215.051 633.201 213.295 632.479 211.473 632.711C210.832 633.574 209.755 634.445 209.514 635.507C209.263 636.614 208.55 637.131 207.954 637.848C207.015 638.978 205.355 638.687 204.296 639.888C203.303 641.012 203.761 642.776 202.272 643.549C200.836 644.296 199.453 645.145 197.96 646H184.904C182.523 644.942 182.95 642.081 181.127 640.732V633.393C179.691 631.959 178.29 630.559 176.845 629.116C177.379 626.592 175.412 624.81 174.7 622.631C174.356 621.58 172.613 620.958 172.334 619.918C171.662 617.422 169.941 615.461 169.231 613.016C169.044 612.371 168.441 611.848 167.867 611.042V607.482C165.768 603.373 163.908 599.731 162.041 596.077C162.36 595.757 162.712 595.408 163.189 594.929V590.099C163.074 589.555 161.282 589.142 161.892 587.444C162.261 587.027 162.737 586.486 163.279 585.872V568.094C162.838 567.622 162.339 567.089 161.831 566.546C161.831 551.217 161.831 535.871 161.832 520.525C162.183 520.174 162.533 519.824 163.242 519.117C163.414 517.341 163.321 515.175 163.253 513.102C162.768 512.526 162.342 512.02 161.922 511.521C162.361 511.082 162.713 510.733 163.189 510.255V498.292C162.942 497.992 162.489 497.442 161.914 496.743V493.833C162.26 493.44 162.737 492.898 163.278 492.284V462.706C163.795 462.154 164.294 461.619 164.801 461.077V458.17C164.309 457.628 163.84 457.109 163.373 456.594C163.764 456.203 164.115 455.852 164.727 455.243V434.445C165.337 433.834 165.688 433.483 166.155 433.016V423.747C165.16 423.382 164.302 423.067 162.823 422.525C164.305 421.483 165.474 420.661 166.298 420.082V410.592C166.655 410.235 167.005 409.885 167.357 409.535C167.498 409.098 167.757 408.662 167.758 408.224C167.767 406.011 167.722 403.797 167.653 401.584C167.648 401.403 167.325 401.234 167.265 401.173C164.151 404.284 161.036 407.397 157.449 410.98C157.436 411.216 157.381 412.164 157.349 412.725C155.617 414.439 154.061 415.98 152.934 417.096V420.827C151.762 423.31 148.632 423.051 147.115 425.382V431.223C146.503 431.84 145.799 432.482 145.179 433.197C144.724 433.724 144.34 434.324 143.997 434.932C143.543 435.736 143.16 436.58 142.519 437.863V441.726C138.622 443.733 138.622 443.733 136.323 449.449C134.396 451.375 132.377 453.22 130.576 455.256C129.512 456.459 128.592 457.885 127.981 459.364C127.543 460.421 127.737 461.734 127.624 462.931C127.58 463.396 127.47 463.856 127.353 464.536C126.752 464.658 126.076 464.796 125.256 464.963C124.15 466.067 122.924 467.292 121.69 468.525V471.678C120.88 471.952 120.021 472.245 118.8 472.66C118.75 473.686 118.693 474.853 118.637 476.025C117.59 478.213 114.836 477.971 113.456 479.675C111.153 479.764 110.222 481.123 109.714 483.239C109.46 484.287 107.805 484.846 108.339 486.334C106.03 488.636 103.714 490.874 101.488 493.197C100.525 494.202 100.784 495.91 99.3968 496.809C98.3805 497.468 97.6176 498.518 96.7413 499.393C95.6901 500.443 94.6388 501.493 93.8676 502.263C93.0449 504.052 92.3777 505.503 91.1771 508.114C90.6778 508.584 88.7565 509.7 87.9482 511.358C87.1935 512.906 86.3883 514.236 85.1836 515.405C83.7616 516.784 82.3758 518.2 80.9744 519.601C80.3031 519.776 79.6328 519.953 78.841 520.16C78.7061 520.779 78.5589 521.454 78.4044 522.168C76.5088 524.062 74.5814 525.986 72.9061 527.661C72.5777 528.616 72.5499 529.513 72.0937 529.878C70.5328 531.129 71.4718 533.994 68.976 534.598H65.6688C64.6587 535.697 63.5456 537.021 62.309 538.219C60.9201 539.562 59.6083 541.32 57.9145 541.923C56.0869 542.574 55.3929 544.147 53.9947 545.038C51.2888 544.403 50.9819 547.849 48.5551 548.15C46.8716 548.358 45.4507 550.375 43.7394 550.72C41.2673 551.215 40.2778 553.228 38.5964 554.509C38.6056 557.609 35.9327 558.033 33.9537 559.141C33.3576 559.475 32.7336 559.758 32.1107 560.069C31.4331 559.499 30.8854 559.037 30.2388 558.492C29.6045 559.086 28.927 559.722 28.0981 560.498C28.059 561.322 28.0137 562.278 27.9643 563.306C26.4003 564.727 24.7755 566.204 23.5389 567.328C23.5389 568.568 23.5389 569.062 23.5368 569.556C22.8346 570.256 22.1334 570.957 21.3725 571.717H17.0223C16.4549 572.233 15.9164 572.723 15.3409 573.247H12.4167C12.08 572.925 11.7248 572.586 11.2841 572.164C9.77256 571.339 8.05305 571.906 6.38503 571.832C6.03495 572.184 5.68488 572.533 5.30185 572.916C3.70178 573.592 2.02141 573.266 0.353385 573.123C-0.194385 572.576 -0.194385 572.576 0.994852 571.246C1.7434 568.443 0.807458 565.235 1.44584 562.023C3.06855 561.334 2.28602 558.956 3.86447 557.968C5.12269 557.181 5.43261 555.717 6.08849 554.463C6.8391 553.027 8.38872 552.006 9.27009 551.126C11.4776 550.476 12.2396 553.64 14.478 551.926C14.5563 550.479 14.6469 548.814 14.7375 547.149C15.9638 545.924 17.2447 544.747 18.3999 543.458C19.3276 542.421 20.9895 541.782 20.5684 539.908C21.8266 538.724 23.0858 537.541 24.3883 536.316C24.7518 536.647 25.2707 537.119 25.7907 537.592C27.0016 536.383 28.2279 535.157 29.4717 533.914V532.481C29.9865 531.924 30.4818 531.387 31.0038 530.824V526.49C32.2682 525.205 33.4832 523.971 34.6951 522.74C35.2088 522.74 35.8668 522.944 36.1654 522.703C37.123 521.929 37.8252 520.787 38.8548 520.167C40.1429 519.39 39.4551 517.825 40.4137 517.071C41.2827 516.388 41.1561 515.354 41.5576 514.574C41.8768 513.953 43.2648 513.974 43.9618 513.433C45.0883 512.559 46.1807 511.541 46.0685 509.684C47.9002 507.855 49.8195 505.937 51.7964 503.962C51.816 503.591 51.8417 503.107 51.8602 502.762C53.7012 500.346 56.5564 498.925 57.7004 496.123C58.7805 493.475 61.6614 492.392 62.8167 490.064C64.2643 487.146 66.5223 485.077 68.6887 482.847C69.0244 482.501 69.6226 482.091 69.5896 481.76C69.3559 479.353 72.0052 478.877 72.6322 477.052C73.1522 475.543 73.596 473.899 74.534 472.664C75.8684 470.905 77.626 469.466 79.2024 467.891C79.6843 467.858 80.1661 467.824 80.648 467.791C81.4861 466.246 81.4861 466.246 81.5325 464.528C81.7765 464.134 81.9454 463.653 82.279 463.361C83.6906 462.123 84.6842 460.497 86.8753 460.047C87.9471 459.827 89.4062 458.448 89.0087 456.61C90.3967 455.006 92.6083 453.987 92.1594 451.45C93.1829 451.45 93.6781 451.45 94.1734 451.45C94.9333 448.448 97.5403 446.865 98.7677 445.422C100.18 442.239 101.012 439.802 103.122 438.074H104.591C105.754 435.818 106.913 433.568 108.287 430.902V426.855C109.472 425.702 110.569 424.277 111.994 423.356C113.243 422.548 111.897 420.07 114.178 420.245V420.245Z" fill="#E6EF61"/>
</g>
<path fill-rule="evenodd" clip-rule="evenodd" d="M500.387 598.233C500.215 597.922 500.037 597.598 499.858 597.275C499.692 597.44 499.366 597.642 499.393 597.763C499.471 598.114 499.692 598.432 499.857 598.763C500.023 598.597 500.188 598.432 500.387 598.233M511.236 508.49C511.408 508.803 511.588 509.125 511.766 509.449C511.931 509.284 512.259 509.082 512.232 508.959C512.154 508.61 511.931 508.292 511.766 507.961C511.601 508.126 511.435 508.292 511.236 508.49M482.121 582.781C481.387 582.422 480.049 581.767 478.675 581.094C478.506 581.741 478.39 582.189 478.166 583.05C479.454 584.163 480.907 585.419 482.577 586.862C482.878 586.769 483.535 586.566 484.152 586.375C483.527 585.269 482.976 584.292 482.121 582.781M486.965 590.151C488.971 592.158 490.691 593.878 492.513 595.699C494.448 595.795 494.448 595.794 495.63 595.087C493.474 592.93 491.249 590.704 488.941 588.396C487.866 588.654 487.866 588.654 486.965 590.151M461.902 432.044H467.078C467.622 432.552 468.156 433.052 468.707 433.568H471.559C472.167 434.107 472.707 434.586 473.279 435.094H479.004C479.634 435.605 480.132 436.009 480.615 436.402C481.614 435.403 482.488 434.529 483.364 433.653C484.602 434.698 485.839 435.746 486.78 436.542C487.516 436.493 487.851 436.575 487.984 436.447C489.406 435.071 490.797 433.662 492.128 432.331C494.524 431.104 496.134 433.318 498.123 433.605C499.318 431.892 499.632 429.512 502.499 429C503.569 429.92 504.818 430.995 506.027 432.035C508.322 432.373 508.54 429.828 511.758 429.146H513.355C514.52 431.415 517.369 431.851 519.385 433.574H523.427C526.146 435.528 529.538 435.23 531.873 437.328V438.762C533.754 439.491 533.754 439.491 535.539 438.055H538.535C539.491 438.964 540.549 439.972 541.632 441.001H543.232C543.523 441.839 543.823 442.7 544.196 443.774C545.274 443.87 546.444 443.975 547.816 444.099C547.981 444.696 548.164 445.359 548.448 446.384C550.453 448.343 552.735 450.572 555.016 452.8C555.314 452.502 555.664 452.152 556.092 451.724C557.661 451.776 557.898 453.649 559.157 454.193C560.328 454.321 561.497 454.449 562.491 454.557C563.69 456.961 564.815 459.218 566.098 461.789C566.092 463.309 563.484 464.493 564.972 467.432C565.575 467.806 566.844 468.592 567.094 468.747C568.008 471.43 566.974 472.196 566.11 472.923V478.438C566.964 480.103 567.603 481.349 568.245 482.601H571.347C572.415 483.812 573.553 485.102 574.946 486.681V494.804C575.992 496.64 576.91 498.25 578 500.163V502.721C577.498 503.257 576.998 503.791 576.521 504.3C576.497 504.826 576.474 505.311 576.443 505.974C575.845 506.168 575.191 506.379 573.877 506.805C573.421 507.457 572.568 508.669 572.016 509.456H568.317C566.227 511.75 563.759 513.641 562.419 516.665C561.83 517.995 560.519 519.523 558.654 519.869C558.479 519.445 558.33 518.673 558.123 518.656C556.964 518.566 555.591 518.276 554.665 518.764C552.387 519.964 550.356 521.664 547.545 521.357C546.001 523.242 542.729 522.76 542.133 525.577C540.668 525.741 539.495 525.872 538.117 526.026C537.982 526.69 537.844 527.369 537.666 528.242C535.811 529.544 533.505 528.256 530.536 529.305C530.239 529.696 529.35 530.871 528.35 532.193C527.353 529.817 526.516 527.904 524.727 527.193C523.974 527.363 523.672 527.338 523.532 527.477C520.71 530.268 517.907 533.078 514.838 536.147H505.775C504.866 538.071 504.082 539.729 503.155 541.692C502.309 542.126 501.077 542.76 499.364 543.641H496.814C496.254 544.317 495.627 545.076 494.908 545.946C495.106 546.911 497.221 547.666 495.534 549.514C495.084 549.171 494.609 548.811 493.609 548.051C492.961 549.141 492.238 550.354 491.353 551.84C489.394 548.961 490.743 546.416 489.881 544.003C488.455 543.719 488.247 545.348 487.322 545.807C486.291 546.317 485.27 546.843 484.241 547.365V549.023C481.965 550.127 481.459 552.681 479.904 555.117V561.292C479.951 561.588 481.792 561.978 481.163 563.754C480.344 564.163 479.356 564.657 478.396 565.137C477.119 567.209 480.798 567.746 479.764 569.718C481.541 570.807 481.294 572.591 481.323 574.273C483.62 576.377 485.434 579.02 488.577 580.145C489.275 580.396 490.332 581.132 490.19 582.391C490.015 583.961 491.849 584.095 492.122 585.302H495.235C496.317 586.329 497.38 587.337 498.467 588.369H499.885C500.714 589.811 501.524 591.222 502.241 592.471C504.375 592.83 506.352 592.727 507.756 594.297C509.595 593.841 510.863 595.148 512.574 595.891C513.04 595.591 513.603 595.197 514.197 594.856C514.592 594.629 515.031 594.48 515.8 594.142C516.927 595.115 518.054 596.844 519.459 597.11C521.216 597.443 521.755 598.8 522.894 599.399C523.192 600.697 522.403 602.015 523.479 603.041C524.223 602.573 524.962 602.108 525.658 601.671C527.945 603.158 528.354 603.641 529.18 605.758C532.513 609.091 535.845 612.423 539.24 615.819V618.681C539.758 619.251 540.247 619.79 540.774 620.37V623.254C541.288 623.811 541.785 624.35 542.307 624.916V626.329C543.737 627.759 545.14 629.162 546.645 630.666V636.438C547.154 637.032 547.622 637.577 548.178 638.226V644.004C548.696 644.57 549.189 645.108 549.711 645.677V659.071C550.054 659.38 550.419 659.711 550.884 660.132C551.785 662.182 550.753 664.413 551.322 666.381C550.796 666.908 550.445 667.259 549.906 667.798C550.318 668.435 550.764 669.123 551.403 670.113C551.01 670.768 550.537 671.557 549.567 673.174C549.138 674.305 550.206 675.901 551.22 677.489C551.071 677.95 551.005 678.437 550.767 678.812C550.507 679.221 550.086 679.527 549.486 680.128C550.539 682.279 551.647 684.539 552.813 686.918C552.389 687.474 551.962 688.034 551.217 689.012V702.211C550.604 702.824 550.254 703.176 549.64 703.788V711.232C549.027 711.845 548.676 712.196 548.28 712.592V719.95C547.759 720.509 547.26 721.045 546.746 721.596V726.037C546.397 726.384 546.044 726.734 545.433 727.34V731.813C544.819 732.427 544.468 732.778 543.855 733.391V740.834C542.715 741.975 541.838 742.852 540.698 743.992V751.432C540.085 752.047 539.734 752.398 539.344 752.789V758.667C538.824 759.224 538.324 759.76 537.811 760.31V767.718C535.59 769.642 535.578 772.813 533.667 774.972C532.979 775.749 532.988 777.098 532.063 778.02C530.893 779.187 529.087 779.978 528.915 781.89C528.782 783.377 526.704 783.953 527.283 785.689C525.631 786.83 525.815 789.143 524.159 790.379C522.586 791.553 521.285 793.091 519.935 794.4V799.944C519.192 801.421 518.676 802.447 517.885 804.02C517.463 804.442 516.586 805.319 515.598 806.308V809.521C514.603 810.258 513.418 811.135 512.758 811.624C512.223 813.474 513.015 814.788 512.032 815.834C510.798 815.666 510.016 813.664 508.228 815.128C508.133 816.116 508.02 817.289 507.888 818.665C507.29 818.825 506.623 819.004 505.578 819.284C504.152 820.283 506.064 823.073 503.788 824.072C503.857 826.381 501.752 827.215 500.617 828.899V834.642C500.105 835.196 499.608 835.734 499.083 836.299V837.889C498.239 838.184 497.376 838.487 496.427 838.82C496.287 839.45 496.137 840.126 495.986 840.803C494.584 842.208 493.181 843.611 491.672 845.12C491.672 845.744 491.721 846.477 491.653 847.201C491.612 847.648 491.48 848.137 491.238 848.508C489.337 851.412 488.317 854.77 486.487 857.699C485.976 858.52 485.113 859.121 484.321 859.913C484.74 860.412 485.167 860.919 485.552 861.378C485.01 862.339 484.46 863.313 483.26 865.438C483.529 865.17 482.826 865.87 482.062 866.628C481.557 866.184 481.042 865.733 480.51 865.266C479.895 866.452 479.268 867.661 478.357 869.417C478.302 870.433 478.212 872.102 478.126 873.686C477.055 874.064 476.192 874.369 475.338 874.671V877.72C474.308 878.834 472.767 879.779 472.469 881.022C472.146 882.368 471.365 883.078 470.666 884.03C469.856 885.133 469.223 886.367 468.494 887.575H465.592C464.86 888.306 464.158 889.008 463.461 889.704C462.849 891.222 464.115 891.879 464.856 892.777C463.371 894.101 460.608 893.878 460.334 896.755C460.258 897.551 459.249 898.276 458.627 898.998C455.96 902.095 452.275 904.303 450.673 908.357C450.382 909.095 449.528 909.726 448.401 909.972C447.337 910.205 446.454 911.266 445.548 911.922V916.837C444.237 917.08 442.887 917.331 441.337 917.618C441.214 918.223 441.073 918.901 440.908 919.703C439.084 921.528 437.155 923.457 435.225 925.387C435.742 928.238 431.547 928.666 432.068 931.521C431.191 932.398 430.374 933.347 429.422 934.133C428.255 935.098 427.82 936.381 427.271 937.72C426.662 939.203 425.812 940.756 424.637 941.79C423.43 942.853 423.318 944.271 422.624 945.473C420.742 948.728 419.484 952.367 416.323 954.8C415.694 955.286 415.795 956.668 415.186 957.242C413.926 958.432 414.371 960.591 412.603 961.416C411.098 962.117 411.535 963.964 410.539 965.041C409.954 965.673 409.794 966.695 409.397 967.653C408.787 967.783 408.11 967.927 407.432 968.071C405.453 969.777 404.028 972.091 401.224 972.872C399.477 973.359 399.849 975.78 398.559 976.854C398.06 976.876 397.573 976.898 397.09 976.92C396.433 977.577 396.433 977.577 396.407 981.87C395.33 983.362 393.889 984.462 392.52 986C391.836 984.076 391.822 982.862 392.506 981.388C393.46 979.326 395.403 977.563 394.919 974.949C395.527 973.134 398.302 972.685 397.884 970.333C399.415 968.641 400.888 967.012 402.361 965.382C401.957 963.916 403.693 963.459 403.834 962.276C403.922 961.542 403.85 960.789 403.85 959.553C405.285 958.378 406.993 956.98 408.342 955.875V951.353C408.991 950.031 409.321 949.152 409.82 948.383C410.83 946.827 411.016 944.763 412.589 943.582C415.392 941.48 416.188 938.143 417.916 935.377C418.776 933.999 418.743 932.042 420.47 931.208C421.972 930.484 421.348 928.521 422.569 927.61C423.828 926.672 422.815 925.277 423.474 923.9C425.677 921.74 428.147 919.319 430.604 916.911C429.887 914.43 431.924 912.837 432.271 910.594C433.622 909.125 435.253 907.613 436.543 905.852C437.329 904.781 437.632 903.34 438.062 902.035C438.209 901.588 438.085 901.051 438.085 900.262C440.031 898.765 441.294 896.493 442.56 893.014V890.274C443.296 888.841 443.821 887.819 444.67 886.17C446.075 884.763 448.005 882.834 449.934 880.905C449.413 878.236 452.888 877.861 453.041 875.47C453.092 874.654 454.039 873.927 454.426 873.09C454.615 872.681 454.459 872.113 454.459 871.617V870.143C455.259 869.629 456.503 868.831 456.806 868.636C457.999 866.079 456.827 865.37 455.934 864.458C457.708 862.755 459.482 861.053 461.351 859.259H462.931C463.178 857.944 463.433 856.581 463.718 855.067C464.351 854.935 465.029 854.793 465.782 854.635C466.419 853.999 467.121 853.297 467.914 852.503C467.807 851.899 467.685 851.222 467.506 850.218C466.746 850.827 466.25 851.224 465.724 851.647C465.467 851.41 464.956 851.169 464.912 850.861C464.511 848.022 466.224 845.977 467.756 843.273V839.445C468.265 838.852 468.734 838.306 469.289 837.661V834.951C469.908 833.854 471.383 833.288 470.82 831.727C472.754 829.818 474.693 827.902 476.578 826.041C476.777 825.284 476.953 824.613 477.127 823.941C477.989 823.634 478.851 823.328 480.137 822.869C477.308 821.461 476.997 818.653 475.471 816.664C476.348 815.787 477.225 814.91 478.189 813.946V809.308C479.208 808.504 480.366 807.592 481.254 806.892C481.254 803.928 481.254 801.448 481.256 798.969C481.609 798.617 481.959 798.267 482.587 797.638C482.655 796.762 482.746 795.588 482.836 794.413C485.111 793.371 483.74 790.897 484.872 789.283C486.315 787.225 487.262 784.82 488.659 782.108V779.732C489.178 779.175 489.678 778.639 490.191 778.088V773.661C490.552 773.3 490.903 772.95 491.379 772.474C491.463 770.492 492.219 768.562 493.16 766.69C492.297 764.532 495.227 763.547 494.722 761.336C494.345 759.686 494.648 757.881 494.648 755.998C495.035 755.535 495.492 754.986 496.062 754.303V750.062C496.577 749.485 497.06 748.944 497.595 748.343V742.366C499.773 741.141 500.442 738.715 501.963 736.137C502.051 734.618 502.175 732.454 502.3 730.291C504.725 729.148 502.449 725.8 505 724.674V720.275C505.515 719.701 506.001 719.161 506.532 718.57V715.708C507.052 715.144 507.548 714.606 508.066 714.045V711.172C508.595 710.587 509.082 710.048 509.534 709.548V705.764C510.4 704.122 511.262 702.488 512.403 700.328V695.077C512.911 694.479 513.375 693.931 513.936 693.271V688.998C514.453 688.429 514.942 687.89 515.469 687.309V679.962C515.967 679.413 516.448 678.883 516.907 678.375C516.417 677.828 515.932 677.287 515.344 676.631C515.884 675.384 516.699 674.164 516.898 672.85C517.087 671.6 517.086 670.435 518.282 669.702C517.809 668.93 517.354 668.188 516.73 667.169C517.254 666.455 517.801 665.711 518.452 664.824V657.541C518.795 657.231 519.161 656.899 519.461 656.627C519.647 656.101 519.91 655.674 519.931 655.234C519.992 654.006 519.953 652.773 519.953 651.607C519.537 651.191 519.186 650.84 518.65 650.304V638.608C517.369 636.786 515.511 635.516 514.127 633.783C514.934 631.853 511.661 631.295 512.51 629.296C511.518 628.219 509.847 627.235 509.683 626.043C509.396 623.95 507.74 623.304 506.709 622.035C505.777 620.886 504.629 619.911 503.578 618.863C503.578 617.865 503.578 616.872 503.578 615.881C501.474 613.775 499.369 611.671 497.139 609.442C496.607 609.327 495.929 609.183 495.247 609.037C494.449 607.618 494.103 605.906 492.465 604.818H487.768C486.547 603.306 485.16 601.588 484.11 600.287C482.903 600.233 482.417 600.211 481.935 600.189C479.474 597.729 477.019 595.274 474.559 592.813H473.057C472.196 591.938 471.328 591.056 470.24 589.951C469.514 589.905 468.569 589.845 466.871 589.737C466.515 588.905 465.909 587.484 465.678 586.942H461.151C460.307 585.138 459.451 583.306 458.452 581.172C457.3 580.02 455.897 578.616 454.477 577.196V568.276C454.796 567.941 455.135 567.585 455.893 566.79C456.155 565.111 455.784 562.908 456.001 560.751C456.351 560.4 456.702 560.049 457.226 559.526C457.788 557.807 457.247 555.831 457.445 553.891C458.502 552.384 458.585 550.181 460.24 549.148C462.068 548.005 461.254 545.281 463.378 544.676V541.493C464.79 540.667 466.192 539.848 467.191 539.263C468.671 537.166 466.879 534.919 468.541 533.318C469.068 533.79 469.592 534.258 470.247 534.844C470.57 533.915 470.869 533.05 471.169 532.187C472.031 531.879 472.892 531.572 473.699 531.285C473.744 530.652 473.777 530.17 473.814 529.637C473.341 529.126 472.844 528.589 472.217 527.912C473.133 527.599 473.993 527.308 474.852 527.015C475.245 524.726 477.803 523.131 476.692 520.707C479.761 517.638 482.567 514.832 485.591 511.808C485.028 509.066 487.743 506.905 487.459 503.78C488.119 503.644 488.797 503.505 489.656 503.327C490.733 502.499 489.959 501.152 490.201 499.969C490.877 498.458 492.872 497.911 493.174 496.033C493.431 494.435 494.769 493.335 494.817 491.442C494.858 489.781 496.344 488.157 497.327 486.254C497.126 486.005 496.725 485.509 496.315 484.999C496.735 484.274 497.189 483.512 497.623 482.74C498.073 481.938 498.505 481.125 498.967 480.275C497.857 479.165 496.629 477.938 495.397 476.705H492.425C490.681 475.133 492.3 472.918 491.489 471.222C487.572 470.244 484.781 466.244 480.637 467.932C479.258 466.465 480.05 465.152 479.722 464.007C478.616 463.148 477.989 461.51 476.166 461.815C475.262 460.181 473.049 460.695 472.007 459.274C471.039 457.955 469.118 457.294 469.293 455.162C469.32 454.837 468.715 454.383 468.317 454.113C467.194 453.353 466.028 452.657 464.878 451.935C465.185 450.086 463.387 449.573 462.65 448.388C461.92 447.216 461.361 445.938 460.577 444.415C461.629 443.532 462.922 442.444 464.563 441.064C465.158 441.002 466.331 440.878 467.421 440.764C467.557 440.424 467.736 440.144 467.682 440.088C466.299 438.666 464.891 437.266 463.944 436.319C463.088 434.528 462.494 433.286 461.902 432.044" fill="#E6EF61"/>
<path fill-rule="evenodd" clip-rule="evenodd" d="M432.065 249.504C431.894 249.194 431.717 248.872 431.539 248.549C431.375 248.714 431.05 248.915 431.078 249.037C431.155 249.386 431.375 249.702 431.539 250.031C431.704 249.867 431.868 249.702 432.065 249.504M439.666 209.032C439.666 207.857 439.666 207.116 439.666 206.376C440.666 205.318 441.666 204.261 442.686 203.185V200.397C443.243 199.737 443.704 199.192 444.1 198.725C444.1 197.36 443.611 195.759 444.201 194.968C445.429 193.323 445.338 191.454 445.938 189.73C446.458 188.235 447.513 186.928 448.508 185.237V181.202C450.281 180.105 449.856 177.649 451.488 176.493C451.244 174.517 454.069 173.401 452.965 171.184C454.373 169.671 454.639 167.855 454.458 165.875C454.324 164.412 454.464 163.129 455.692 161.901C456.358 161.235 455.747 159.343 456.391 158.582C457.304 157.502 457.245 156.446 457.46 155.27C457.659 154.187 458.763 153.209 458.787 152.169C458.825 150.593 459.78 149.571 460.234 148.3C461.334 145.221 463.277 142.654 464.714 138.718V135.377C465.225 134.804 465.704 134.266 466.235 133.671V129.352C466.753 128.792 467.247 128.257 467.753 127.709V123.303C468.113 122.942 468.461 122.593 468.832 122.222C469.687 120.623 468.511 118.244 470.697 117.106C470.293 115.292 471.52 114.021 472.075 112.502C472.552 111.197 471.798 109.445 472.257 108.126C473.075 105.771 473.884 103.377 475.096 101.152V87.6257C474.484 87.1219 473.728 86.5001 472.667 85.6259H468.39C467.957 86.0568 466.954 86.615 466.659 87.4297C465.632 90.275 464.081 92.323 460.972 93.1552C459.776 93.4753 459.297 95.2915 457.539 95.7111C457.457 93.9329 457.38 92.2728 457.306 90.6782C456.802 90.0954 456.335 89.5537 455.669 88.7831C456.094 88.0146 456.537 87.2142 457.408 85.6423V81.8068C458.016 81.1984 458.364 80.8495 458.793 80.4175V76.3994C459.844 74.5525 460.757 72.9457 461.83 71.0598C461.83 68.471 461.83 65.5108 461.829 62.5495C461.481 62.2007 461.133 61.8518 460.783 61.5029C460.639 61.0689 460.381 60.6369 460.372 60.2009C460.33 57.9917 460.353 55.7826 460.353 53.4462C461.246 53.1312 462.132 52.8922 462.946 52.5023C463.365 52.3011 463.654 51.8302 464.025 51.4587H467.126C467.945 49.6529 468.788 47.7936 469.673 45.842C470.927 45.1525 472.408 45.6584 473.987 45.4911C475.203 45.2818 475.836 43.4954 477.668 43.9243C478.515 44.1234 479.615 43.2379 480.599 42.8438C480.947 43.1927 481.295 43.5416 481.778 44.0259C484.575 44.0259 487.51 44.0331 490.444 44.0095C490.639 44.0084 490.831 43.7714 491.024 43.6442C491.324 42.7854 491.623 41.9265 491.946 41C492.419 41.4248 492.767 41.7377 492.72 41.6957C493.29 42.2169 493.467 42.5206 493.648 42.5227C496.103 42.5545 498.56 42.5442 501.178 42.5442C501.466 43.3805 501.762 44.2403 502.059 45.1012C503.418 45.8749 504.9 45.3526 506.341 45.5106C507.793 46.1386 509.094 46.9676 510.859 47.138C512.327 47.2796 513.638 48.478 515.418 48.6114C516.863 48.7191 518.329 49.9145 519.582 50.8893C520.933 51.9389 522.03 53.3108 523.271 54.5092C524.504 55.7015 525.778 56.8518 526.881 57.8778V61.1284C528.446 62.0375 528.213 63.5356 528.375 64.9926C528.524 66.3347 530.164 67.1279 529.851 68.8352C529.593 70.241 529.898 71.5082 530.962 72.8349C531.704 73.7614 531.267 75.6381 531.371 77.3188C531.688 77.6882 532.154 78.2299 532.703 78.8702V81.8899C533.288 82.1075 533.908 82.3127 534.51 82.563C537.235 83.6938 538.027 86.4642 538.488 88.741C538.987 91.2026 540.947 92.6801 541 95.7522C539.976 97.755 538.542 100.558 537.032 103.509C537.431 104.08 537.828 104.646 538.483 105.581V116.09C538.172 116.402 537.824 116.751 537.384 117.192C537.267 118.257 537.139 119.425 536.989 120.792C536.325 120.928 535.652 121.065 534.927 121.212C534.025 124.303 531.296 126.065 529.214 128.355C527.629 128.632 525.743 128.054 524.695 129.95H521.781C521.229 130.466 520.698 130.964 520.159 131.47C514.762 131.47 509.349 131.47 503.938 131.471C502.825 133.438 502.393 135.9 499.343 136.214C498.394 136.311 497.591 137.838 496.638 138.794H493.942C493.467 139.169 493.061 139.429 492.729 139.76C489.242 143.242 485.765 146.735 482.286 150.224C480.895 151.621 479.412 152.939 478.138 154.436C477.076 155.686 475.647 156.489 474.989 158.305C474.378 159.991 472.441 161.146 471.365 162.725C469.949 164.801 469.363 167.34 467.814 169.407C467.345 170.031 467.741 171.309 467.741 172.365C465.386 173.816 464.667 176.445 463.343 178.636C462.526 179.987 462.212 181.652 461.365 182.977C460.728 183.973 459.603 184.654 458.843 185.34V188.589C456.949 189.637 457.531 191.531 457.247 193.123C455.303 194.141 456.249 196.16 455.7 197.639C454.813 198.529 453.944 199.401 453.02 200.328V203.19C452.506 203.752 452.017 204.287 451.505 204.845C451.328 206.185 451.748 207.56 450.545 208.885C449.529 210.005 448.545 211.796 448.682 213.178C448.88 215.174 447.537 216.322 446.909 217.693C445.868 219.968 445.112 222.669 442.633 223.938V229.971C442.128 230.518 441.634 231.053 441.115 231.614V234.499C440.737 234.878 440.39 235.227 440.041 235.576C439.331 236.953 439.808 238.434 439.637 240.162C439.374 240.514 438.956 241.074 438.334 241.908V247.09C437.413 248.73 436.655 250.079 435.894 251.435C435.526 251.066 435.179 250.718 434.783 250.319C433.649 250.123 433.51 251.42 432.74 251.757C431.854 253.368 432.506 255.11 432.225 256.755C431.529 257.453 430.833 258.15 429.986 259C429.412 258.229 428.839 257.46 428 256.334V244.688C428.503 244.184 428.851 243.835 429.262 243.424V239.093C429.773 238.528 430.257 237.991 430.781 237.413V234.549C431.294 233.993 431.787 233.457 432.301 232.898V230.044C432.827 229.459 433.31 228.923 433.821 228.355V223.259C436.132 218.242 436.613 213.226 439.666 209.032" fill="#E6EF61"/>
<path fill-rule="evenodd" clip-rule="evenodd" d="M429.663 262C429.795 262.788 430.046 263.584 429.993 264.362C429.975 264.608 429.162 264.877 428.667 264.998C428.51 265.036 427.991 264.624 428 264.429C428.036 263.633 428.211 262.841 428.336 262.048C428.777 262.032 429.22 262.016 429.663 262" fill="#E6EF61"/>
<path fill-rule="evenodd" clip-rule="evenodd" d="M449 307C448.066 306.281 447.533 305.871 447 305.46C448.711 304.262 448.567 305.63 449 307" fill="#E6EF61"/>
<path fill-rule="evenodd" clip-rule="evenodd" d="M545 394C544.281 394.933 543.871 395.466 543.46 396C542.262 394.289 543.629 394.433 545 394" fill="#E6EF61"/>
<path fill-rule="evenodd" clip-rule="evenodd" d="M115 419C115.719 418.067 116.13 417.533 116.54 417C117.738 418.711 116.371 418.567 115 419" fill="#E6EF61"/>
<path fill-rule="evenodd" clip-rule="evenodd" d="M113.003 420.997C112.952 419.616 113.617 418.952 114.997 419.003C115.048 420.383 114.383 421.048 113.003 420.997" fill="#E6EF61"/>
</svg>
