<svg width="307" height="226" viewBox="0 0 307 226" fill="none" xmlns="http://www.w3.org/2000/svg">
<path fill-rule="evenodd" clip-rule="evenodd" d="M79.531 135.797L79.5306 135.797L79.5305 135.797C77.0291 137.114 75.1924 138.081 75.0007 138.324L74.6606 138.205C74.0582 138.601 73.2191 143.697 72.3516 151.213L72.1673 152.363L78.9794 152.171C93.5657 151.668 108.93 152.198 131.441 153.944C149.488 155.11 165.027 157.068 166.767 157.982C169.206 159.293 170.602 161.377 170.695 163.459C170.686 166.037 169.778 167.921 167.791 168.97C166.425 169.782 166.105 169.821 164.584 169.364C163.063 168.906 161.226 167.199 161.05 165.771C160.933 164.819 156.793 162.911 151.909 161.578C141.622 158.653 118.012 155.915 97.0797 155.102C87.2841 154.856 72.4791 154.902 72.2168 155.417C71.6339 155.972 65.0506 197.916 64.6012 206.186C64.1908 214.773 63.7203 217.569 62.3507 219.67C60.9811 221.771 58.8967 222.027 57.0985 220.637C56.0196 219.803 55.8008 219.347 55.6689 216.947C55.6344 215.34 56.8615 208.103 58.249 200.845L66.8672 155.591L61.8383 155.725C54.0837 156.194 33.2982 159.229 26.1999 161.067C24.9184 161.349 23.5922 161.659 22.3817 161.943L22.3813 161.943C20.4483 162.396 18.8102 162.78 18.1201 162.865L18.1199 162.865C16.9833 163.004 16.4666 163.068 16.2 162.839C15.9778 162.649 15.9295 162.255 15.8409 161.534L15.646 159.947L27.9231 155.218C41.2835 150.034 48.0851 147.105 61.3286 140.969L70.0976 136.832L76.3323 106.752C83.6683 71.0602 87.1865 55.9709 90.9774 43.1031L91.5648 41.2592L89.5778 42.3085C85.1423 44.6249 75.3244 50.8235 71.1271 53.7549C54.3968 65.9565 42.2488 79.6894 39.9922 89.1474C39.0168 93.1329 39.9159 93.8278 46.3639 94.6468C52.151 95.3858 53.765 97.9258 50.2286 100.937C46.9739 103.592 40.5259 102.773 36.8321 99.1996C35.3545 97.7703 35.1163 97.1553 34.5858 94.1601C34.0358 91.0063 34.1376 90.5105 35.2105 87.3185C36.8902 82.4412 39.3282 78.4373 44.5593 71.9965C49.7904 65.5557 55.3182 60.206 63.0323 54.1046C69.4008 48.9737 81.2882 41.0714 88.6142 37.1115L93.8124 34.3794L95.7499 30.2758C96.7793 28.0555 98.2508 25.4588 99.1154 24.5473C102.093 20.9603 104.853 22.2321 104.835 27.3885L104.967 29.7884L108.378 28.4032C119.27 24.3276 131.961 21.6419 141.678 21.2541C157.047 20.4945 167.772 24.3319 172.992 32.3886C174.966 35.2066 174.985 35.3653 175.667 40.919C176.232 45.5206 176.247 46.9684 175.777 49.7644C170.056 76.0768 138.142 105.122 83.3907 133.75C82.0264 134.483 80.7071 135.178 79.5339 135.795L79.5318 135.797L79.531 135.797ZM100.868 27.444C100.839 27.414 100.806 27.4 100.768 27.4047L100.929 27.385C100.918 27.3863 100.897 27.4068 100.868 27.444ZM100.868 27.444C101.203 27.7944 100.927 30.3352 100.556 30.9743C100.152 31.6681 98.4667 32.5194 98.4082 32.0433C98.3718 31.7472 100.459 27.9638 100.868 27.444ZM74.7759 133.842C74.7397 133.547 75.1392 131.231 75.6911 128.03L75.6912 128.029L75.6915 128.028C76.0325 126.05 76.4318 123.734 76.8226 121.349C82.6721 86.8062 89.145 57.3411 93.7376 44.3749L93.7577 44.3216C95.5786 39.4755 95.7053 39.1384 97.4043 38.4483C98.3079 37.8541 99.2505 37.5773 99.4108 37.5577C99.6101 37.8553 96.946 49.2962 95.2423 55.3039C92.1796 66.1495 86.189 83.6362 84.3339 87.0854C83.246 88.8297 83.1786 90.9318 84.1557 92.2615C84.9529 93.4522 87.3579 93.1569 88.1641 91.7693C89.5727 89.9857 101.032 49.4388 102.949 39.8614C103.337 37.7199 104.065 35.6976 104.347 35.3409C104.789 34.9645 107.577 33.8167 110.687 32.6296C131.087 25.1316 151.368 23.2858 162.35 27.8969C165.63 29.4269 169.805 32.9411 170.958 35.6988C172.45 38.5759 173.093 43.8122 172.419 47.5996C169.209 71.8319 136.63 102.086 84.026 129.646C79.9111 131.923 76.2384 133.823 75.7769 134.041C75.1745 134.437 74.9947 134.298 75.2179 133.465L74.7759 133.842ZM66.6769 152.715C67.3377 152.795 67.7213 151.942 68.5604 146.846C68.9724 143.574 69.4624 140.937 69.4624 140.937C69.4624 140.937 62.5199 144.044 54.0715 148.142L38.6612 155.188L47.3389 154.284C54.7145 153.378 59.8842 153.066 66.6769 152.715ZM173.055 106.641C172.659 107.351 172.32 108.038 172.061 108.673C170.129 112.9 169.71 116.143 170.605 118.108C171.5 120.073 173.663 121.722 175.833 122.094C179.67 122.74 184.628 120.535 200.216 111.759C205.938 108.54 210.936 105.875 211.543 105.742C210.232 114.396 209.618 120.949 209.976 123.863C210.36 126.989 210.573 127.439 211.76 128.086C214.327 129.675 215.496 128.896 216.301 125.149C217.223 121.07 219.004 116.251 222.677 108.82C226.449 100.901 231.663 91.8533 232.013 92.1276C232.188 92.2647 232.148 93.2213 232.107 94.1781L232.107 94.1783C231.202 99.683 233.63 102.716 237.584 101.437C238.72 101 250.793 94.0317 255.264 91.1132C254.316 93.8917 254.03 96.9523 254.767 99.3784C255.472 101.08 257.742 103.402 259.287 103.862C262.174 104.483 266.762 102.782 271.928 99.0592C273.602 97.8784 278.136 94.3961 282.058 91.3141C284.437 89.5071 286.81 87.6458 288.586 86.2523L288.588 86.2505C289.86 85.2528 290.826 84.4951 291.269 84.1695C293.393 82.6085 293.536 82.4284 292.564 81.2475L292.87 81.0473C292.466 80.4469 291.671 80.707 287.69 83.3087C285.241 84.9097 279.749 88.6721 275.827 91.7541C266.27 98.7786 260.641 101.42 259.349 98.9784C259.127 98.5181 259.27 98.3379 260.085 98.2379C262.854 97.8978 266.377 92.9144 267.026 88.7715C267.279 86.7901 267.22 86.3097 266.45 85.429C264.911 83.6677 263.183 83.0671 261.287 83.7876C259.885 84.2059 258.581 85.2988 257.491 86.7715C257.232 86.7441 256.956 86.8952 256.553 87.2109C254.408 89.0606 239.031 97.7698 237.356 98.2928C237.3 98.3033 237.245 98.3136 237.192 98.3237C236.408 98.4714 235.896 98.5679 235.612 98.357C235.079 97.9599 235.358 96.4728 236.16 92.1852L236.239 91.7674C237.065 86.9069 237.144 86.2626 236.523 85.0698C235.145 82.8595 233.8 83.5005 230.815 87.5157C227.536 91.7255 221.306 102.802 217.632 110.233C216.245 113.1 214.956 115.479 214.781 115.342C214.637 115.229 215.078 112.039 215.656 107.858L215.656 107.857L215.658 107.845C215.782 106.947 215.913 106.003 216.045 105.034C221.382 71.2242 226.389 47.6075 234.13 19.2134C235.246 15.4277 235.151 14.6464 234.549 13.6098C234.141 12.8667 233.636 12.6115 232.72 12.8825C231.649 13.1727 231.239 13.6989 230.18 17.9534C228.69 23.8472 224.307 35.807 221.707 41.6784C219.714 46.0476 219.671 48.2738 221.071 49.371C221.378 49.4807 221.69 49.6241 221.951 49.7444C222.252 49.8828 222.485 49.9904 222.569 49.9802C223.055 50.0791 222.564 52.5189 221.388 57.1051C217.482 73.16 214.12 89.6851 212.055 102.472C211.457 102.528 209.34 103.677 206.913 104.993L206.913 104.993L206.341 105.303C206.12 105.422 205.899 105.542 205.676 105.663C197.447 110.503 185.954 116.702 182.851 118.041C174.41 121.152 171.912 118.107 177.038 110.615C179.285 107.626 182.253 105.187 184.346 104.93C186.599 104.654 188.138 102.55 187.385 100.408C186.497 97.1654 183.606 96.2437 180.078 98.1132C178.755 98.9236 176.776 101.104 175.054 103.513C174.672 103.423 173.471 103.597 171.368 104.457C163.488 107.943 152.879 110.505 145.528 110.778C141.114 111.162 140.64 111.063 140.374 110.151C140.147 109.55 139.426 108.694 138.763 108.303C137.739 107.485 137.265 107.385 135.769 107.727C134.727 108.012 133.268 108.663 132.568 109.221C131.886 109.935 130.749 110.704 129.859 110.97C127.832 112.006 125.883 114.921 124.313 119.678C122.63 124.764 121.894 130.048 122.275 134.408C122.6 138.303 123.775 140.362 125.841 140.896C128.57 141.82 130.559 140.474 133.815 135.667C136.579 131.865 140.098 122.934 140.871 117.96L141.173 115.405L145.985 114.499C156.822 112.539 165.612 110.2 171.862 107.23C172.299 107.026 172.697 106.829 173.055 106.641ZM131.463 131.549C133.167 129.136 134.264 126.798 135.474 122.872L135.436 122.562C137.574 116.161 137.611 115.212 136.663 115.014C136.19 114.915 135.526 114.524 134.844 113.978C134.01 113.451 133.707 113.488 133.764 113.953C133.802 114.264 133.177 115.442 132.515 116.31C131.72 117.352 130.622 119.691 129.941 121.663C128.598 125.762 127.068 133.348 127.278 135.053C127.392 135.984 127.562 136.12 128.263 135.562C128.583 135.407 129.371 134.347 130.345 133.039C130.698 132.564 131.075 132.057 131.463 131.549ZM263.245 87.6104C264.158 88.311 263.723 90.1523 262.043 92.634C260.2 95.1357 258.467 95.8361 258.7 93.6946C259.141 90.5523 261.987 86.7898 263.245 87.6104Z" fill="#8E1818"/>
</svg>
